%TF.GenerationSoftware,Altium Limited,Altium Designer,25.5.2 (35)*%
G04 Layer_Color=8421504*
%FSLAX45Y45*%
%MOMM*%
%TF.SameCoordinates,3BADBC57-1BA9-4FDE-98A5-202BFE76BA5A*%
%TF.FilePolarity,Positive*%
%TF.FileFunction,Paste,Top*%
%TF.Part,Single*%
G01*
G75*
%TA.AperFunction,SMDPad,CuDef*%
%ADD10R,1.80000X7.50000*%
%ADD11R,1.05000X0.65000*%
%ADD12R,0.45000X0.35000*%
%ADD13R,0.70000X6.76000*%
%ADD14R,3.90000X6.76000*%
%ADD15R,0.45000X0.45000*%
%ADD16R,0.53213X1.25439*%
%ADD17R,1.30000X0.70000*%
G04:AMPARAMS|DCode=18|XSize=1.25439mm|YSize=0.53213mm|CornerRadius=0.26606mm|HoleSize=0mm|Usage=FLASHONLY|Rotation=90.000|XOffset=0mm|YOffset=0mm|HoleType=Round|Shape=RoundedRectangle|*
%AMROUNDEDRECTD18*
21,1,1.25439,0.00000,0,0,90.0*
21,1,0.72226,0.53213,0,0,90.0*
1,1,0.53213,0.00000,0.36113*
1,1,0.53213,0.00000,-0.36113*
1,1,0.53213,0.00000,-0.36113*
1,1,0.53213,0.00000,0.36113*
%
%ADD18ROUNDEDRECTD18*%
%ADD19R,1.10464X1.35620*%
D10*
X2413000Y1270000D02*
D03*
X2973000D02*
D03*
D11*
X3429000Y2353400D02*
D03*
X3810000Y2328000D02*
D03*
Y2498000D02*
D03*
X3429000Y2523400D02*
D03*
D12*
X2946400Y2387600D02*
D03*
X2881400D02*
D03*
D13*
X5430800Y3708400D02*
D03*
X5443500Y2730500D02*
D03*
X4843500D02*
D03*
X4830800Y3708400D02*
D03*
D14*
X5130800D02*
D03*
X5143500Y2730500D02*
D03*
D15*
X2960999Y2667000D02*
D03*
X2880999D02*
D03*
D16*
X2191000Y2434971D02*
D03*
D17*
X1397000Y2318000D02*
D03*
X1016000D02*
D03*
Y2508000D02*
D03*
X1397000D02*
D03*
D18*
X2286000Y2434971D02*
D03*
X2381000D02*
D03*
Y2645029D02*
D03*
X2286000D02*
D03*
X2191000D02*
D03*
D19*
X1975578Y1397000D02*
D03*
X1834422D02*
D03*
%TF.MD5,30927796c58e307384e1c101570ea3b9*%
M02*
