%TF.GenerationSoftware,Altium Limited,Altium Designer,25.5.2 (35)*%
G04 Layer_Color=8388736*
%FSLAX45Y45*%
%MOMM*%
%TF.SameCoordinates,3BADBC57-1BA9-4FDE-98A5-202BFE76BA5A*%
%TF.FilePolarity,Negative*%
%TF.FileFunction,Soldermask,Top*%
%TF.Part,Single*%
G01*
G75*
%TA.AperFunction,SMDPad,CuDef*%
%ADD10R,1.80000X7.50000*%
%ADD11R,1.05000X0.65000*%
%ADD12R,0.45000X0.35000*%
%ADD13R,0.70000X6.76000*%
%ADD14R,3.90000X6.76000*%
%ADD15R,0.45000X0.45000*%
%ADD16R,0.53213X1.25439*%
%ADD17R,1.30000X0.70000*%
G04:AMPARAMS|DCode=18|XSize=1.25439mm|YSize=0.53213mm|CornerRadius=0.26606mm|HoleSize=0mm|Usage=FLASHONLY|Rotation=90.000|XOffset=0mm|YOffset=0mm|HoleType=Round|Shape=RoundedRectangle|*
%AMROUNDEDRECTD18*
21,1,1.25439,0.00000,0,0,90.0*
21,1,0.72226,0.53213,0,0,90.0*
1,1,0.53213,0.00000,0.36113*
1,1,0.53213,0.00000,-0.36113*
1,1,0.53213,0.00000,-0.36113*
1,1,0.53213,0.00000,0.36113*
%
%ADD18ROUNDEDRECTD18*%
%ADD19R,1.10464X1.35620*%
%TA.AperFunction,ComponentPad*%
%ADD21C,1.53000*%
%ADD22C,1.57000*%
%TA.AperFunction,ViaPad*%
%ADD23C,2.54000*%
%TA.AperFunction,ComponentPad*%
%ADD24R,1.53000X1.53000*%
%ADD25R,1.57000X1.57000*%
%TA.AperFunction,ViaPad*%
%ADD26C,1.01600*%
%ADD27C,0.81280*%
%ADD28C,0.76200*%
%ADD29C,1.27000*%
D10*
X2413000Y1270000D02*
D03*
X2973000D02*
D03*
D11*
X3429000Y2353400D02*
D03*
X3810000Y2328000D02*
D03*
Y2498000D02*
D03*
X3429000Y2523400D02*
D03*
D12*
X2946400Y2387600D02*
D03*
X2881400D02*
D03*
D13*
X5430800Y3708400D02*
D03*
X5443500Y2730500D02*
D03*
X4843500D02*
D03*
X4830800Y3708400D02*
D03*
D14*
X5130800D02*
D03*
X5143500Y2730500D02*
D03*
D15*
X2960999Y2667000D02*
D03*
X2880999D02*
D03*
D16*
X2191000Y2434971D02*
D03*
D17*
X1397000Y2318000D02*
D03*
X1016000D02*
D03*
Y2508000D02*
D03*
X1397000D02*
D03*
D18*
X2286000Y2434971D02*
D03*
X2381000D02*
D03*
Y2645029D02*
D03*
X2286000D02*
D03*
X2191000D02*
D03*
D19*
X1975578Y1397000D02*
D03*
X1834422D02*
D03*
D21*
X3810000Y254000D02*
D03*
X4572000D02*
D03*
X4318000D02*
D03*
X4064000D02*
D03*
X6350000Y5080000D02*
D03*
X6096000D02*
D03*
X5842000D02*
D03*
X5588000D02*
D03*
X5334000D02*
D03*
X5080000D02*
D03*
X4826000D02*
D03*
X3556000Y254000D02*
D03*
X3302000D02*
D03*
X3048000D02*
D03*
X6350000D02*
D03*
X6096000D02*
D03*
X5842000D02*
D03*
X5588000D02*
D03*
X5334000D02*
D03*
D22*
X2540000Y5080000D02*
D03*
X2032000D02*
D03*
X2286000D02*
D03*
X2794000D02*
D03*
X3048000D02*
D03*
X3302000D02*
D03*
X3556000D02*
D03*
X3810000D02*
D03*
X4064000D02*
D03*
D23*
X304800Y2565400D02*
D03*
X330200Y3327400D02*
D03*
D24*
X4572000Y5080000D02*
D03*
X2794000Y254000D02*
D03*
X5080000D02*
D03*
D25*
X1778000Y5080000D02*
D03*
D26*
X3810000Y2667000D02*
D03*
X2133600Y2235200D02*
D03*
X3429000Y2667000D02*
D03*
D27*
X5588000Y2438400D02*
D03*
Y2743200D02*
D03*
Y3390900D02*
D03*
Y3048000D02*
D03*
Y2895600D02*
D03*
Y3543300D02*
D03*
Y3848100D02*
D03*
Y2590800D02*
D03*
Y4000500D02*
D03*
Y3695700D02*
D03*
D28*
X2959100Y2794000D02*
D03*
D29*
X1397000Y2159000D02*
D03*
X1016000D02*
D03*
%TF.MD5,49e4e1aecf3dbe1e888f05edd58f3432*%
M02*
