M48
;Layer_Color=9474304
;FILE_FORMAT=4:4
METRIC,LZ
;TYPE=PLATED
T01F00S00C0.4572
T02F00S00C0.5080
T03F00S00C0.7112
T04F00S00C0.7620
T05F00S00C1.0200
T06F00S00C1.5240
%
T01
X0029591Y002794
T02
X005588Y0024384
Y0025908
Y0027432
Y0028956
Y003048
Y0033909
Y0035433
Y0036957
Y0038481
Y0040005
T03
X0021336Y0022352
X001397Y002159
X001016
T04
X003429Y002667
X00381
T05
X002794Y000254
X003048
X003302
X003556
X00381
X004064
X004318
X004572
X00508
X005334
X005588
X005842
X006096
X00635
Y00508
X006096
X005842
X005588
X005334
X00508
X004826
X004572
X004064
X00381
X003556
X003302
X003048
X002794
X00254
X002286
X002032
X001778
T06
X0003048Y0025654
X0003302Y0033274
M30
