%TF.GenerationSoftware,Altium Limited,Altium Designer,25.5.2 (35)*%
G04 Layer_Color=8421504*
%FSLAX45Y45*%
%MOMM*%
%TF.SameCoordinates,BFD2D179-1F78-4762-B65C-0EBC3C109862*%
%TF.FilePolarity,Positive*%
%TF.FileFunction,Paste,Top*%
%TF.Part,Single*%
G01*
G75*
%TA.AperFunction,SMDPad,CuDef*%
%ADD10R,0.45000X0.45000*%
%ADD11R,0.45000X0.35000*%
%ADD12R,1.80000X7.50000*%
%ADD13R,1.30000X0.70000*%
G04:AMPARAMS|DCode=14|XSize=1.25439mm|YSize=0.53213mm|CornerRadius=0.26606mm|HoleSize=0mm|Usage=FLASHONLY|Rotation=90.000|XOffset=0mm|YOffset=0mm|HoleType=Round|Shape=RoundedRectangle|*
%AMROUNDEDRECTD14*
21,1,1.25439,0.00000,0,0,90.0*
21,1,0.72226,0.53213,0,0,90.0*
1,1,0.53213,0.00000,0.36113*
1,1,0.53213,0.00000,-0.36113*
1,1,0.53213,0.00000,-0.36113*
1,1,0.53213,0.00000,0.36113*
%
%ADD14ROUNDEDRECTD14*%
%ADD15R,0.53213X1.25439*%
%ADD16R,1.10464X1.35620*%
%ADD17R,0.70000X6.76000*%
%ADD18R,3.90000X6.76000*%
%ADD19R,1.05000X0.65000*%
D10*
X2880999Y2667000D02*
D03*
X2960999D02*
D03*
D11*
X2881400Y2387600D02*
D03*
X2946400D02*
D03*
D12*
X2413000Y1270000D02*
D03*
X2973000D02*
D03*
D13*
X1397000Y2508000D02*
D03*
Y2318000D02*
D03*
X1016000Y2508000D02*
D03*
Y2318000D02*
D03*
D14*
X2191000Y2645029D02*
D03*
X2286000D02*
D03*
X2381000D02*
D03*
Y2434971D02*
D03*
X2286000D02*
D03*
D15*
X2191000D02*
D03*
D16*
X1834422Y1397000D02*
D03*
X1975578D02*
D03*
D17*
X4843500Y2730500D02*
D03*
X5443500D02*
D03*
X4830800Y3708400D02*
D03*
X5430800D02*
D03*
D18*
X5143500Y2730500D02*
D03*
X5130800Y3708400D02*
D03*
D19*
X3429000Y2353400D02*
D03*
Y2523400D02*
D03*
X3810000Y2328000D02*
D03*
Y2498000D02*
D03*
%TF.MD5,9cb7a32243bd89d90c755a907666756b*%
M02*
